<svg t="1576575379812" class="icon" viewBox="0 0 1024 1024" version="1.1" xmlns="http://www.w3.org/2000/svg" p-id="2541" width="128" height="128"><path d="M620.8 611.2C688 572.8 736 499.2 736 416c0-124.8-99.2-224-224-224s-224 99.2-224 224c0 83.2 44.8 156.8 115.2 195.2-89.6 35.2-156.8 115.2-179.2 211.2-3.2 9.6 0 19.2 6.4 25.6 6.4 6.4 16 12.8 25.6 12.8h512c9.6 0 19.2-3.2 25.6-12.8 6.4-6.4 6.4-16 6.4-25.6-22.4-96-89.6-176-179.2-211.2zM992 630.4c-12.8-64-54.4-115.2-118.4-144 35.2-32 54.4-76.8 54.4-128 0-92.8-70.4-166.4-160-166.4-19.2 0-32 12.8-32 32s12.8 32 32 32c54.4 0 96 44.8 96 102.4 0 51.2-28.8 89.6-73.6 99.2-16 3.2-28.8 22.4-22.4 38.4 0 16 9.6 28.8 25.6 28.8C864 537.6 912 579.2 924.8 640c3.2 16 16 25.6 32 25.6h6.4c19.2 0 32-16 28.8-35.2zM252.8 499.2c6.4-19.2-6.4-35.2-22.4-41.6-41.6-9.6-70.4-48-70.4-99.2 3.2-57.6 41.6-102.4 96-102.4 19.2 0 32-12.8 32-32s-16-32-32-32c-89.6 0-156.8 70.4-156.8 166.4 0 51.2 19.2 96 51.2 128-60.8 28.8-105.6 80-118.4 144-3.2 16 6.4 35.2 25.6 38.4H64c16 0 28.8-9.6 32-25.6 12.8-60.8 60.8-102.4 131.2-115.2 16 0 25.6-12.8 25.6-28.8z" p-id="2542" fill="#1296db"></path></svg>