<svg t="1578538092864" class="icon" viewBox="0 0 1024 1024" version="1.1" xmlns="http://www.w3.org/2000/svg" p-id="5462" width="48" height="48"><path d="M689.816848 468.917786c66.016553 0 119.534444-53.516868 119.534444-119.534444s-53.517891-119.534444-119.534444-119.534444S570.282405 283.366789 570.282405 349.383342s53.516868 119.534444 119.534443 119.534444zM344.968799 812.56345c14.003945 14.003945 14.003945 36.710087 0 50.714032l-50.714032 50.714032c-14.003945 14.003945-36.710087 14.003945-50.714032 0-14.003945-14.003945-14.003945-36.710087 0-50.714032l50.714032-50.714032c14.004969-14.004969 36.710087-14.004969 50.714032 0z m-101.428064-101.428064c14.003945 14.003945 14.003945 36.710087 0 50.714032L125.208677 880.181477c-14.003945 14.003945-36.710087 14.003945-50.714032 0-14.003945-14.003945-14.003945-36.710087 0-50.714032l118.333082-118.333082c14.003945-14.003945 36.709063-14.003945 50.713008 0.001023z m573.069891-103.118565l-158.059875 158.058852 13.757328 22.928198c11.288091 18.813484 8.323573 42.894949-7.190773 58.409295l-65.537645 65.537645a47.835472 47.835472 0 0 1-9.209756 7.190773c-22.64372 13.586436-52.013631 6.244214-65.600067-16.399505l-39.492456-65.821101-283.998169-283.999193-65.821102-39.492456c-22.64372-13.586436-29.985942-42.956348-16.399505-65.600067a47.826262 47.826262 0 0 1 7.190773-9.209756l65.537645-65.537646c15.514345-15.514345 39.59581-18.478863 58.409295-7.190772l39.833217 23.900339 154.677848-154.677848c0.760317-0.7552 1.51654-1.51654 2.27481-2.27481C578.981531 101.83841 768.95935 63.152319 934.942685 117.780497c54.628178 165.983335 15.942087 355.961154-116.057249 487.960491-0.75827 0.759293-1.51961 1.514493-2.282996 2.267646l0.008186 0.008187z" p-id="5463" fill="#0b988f"></path></svg>