<svg t="1578537325360" class="icon" viewBox="0 0 1024 1024" version="1.1" xmlns="http://www.w3.org/2000/svg" p-id="3930" width="48" height="48"><path d="M337.23733334 658.432c30.208-22.016 51.2-95.232-16.384-163.328-3.072-3.072-7.168-5.632-11.776-6.144-14.848-2.048-55.296-16.896-100.352-115.2-15.872-34.304-10.24-83.968-7.68-124.416s41.472-103.424 72.704-124.416 112.64-58.88 167.424-61.44c55.296-2.56 109.056-1.536 145.408 22.528 36.864 23.552 89.088 61.44 98.304 91.648 9.216 30.208 2.048 47.104 10.24 53.76 18.432 14.848 108.544 55.296 93.696 76.288-10.752 14.848-20.48 14.336-22.016 26.112-1.536 11.776 9.728 20.992 13.824 20.992 2.048 0 4.096 1.536 6.144 2.56 2.56 1.536 3.584 5.12 3.072 7.68l-3.072 11.264c-0.512 2.048-0.512 4.096 0 6.144l6.144 11.776c1.024 1.536 1.024 3.584 0.512 5.632l-2.048 7.68c-0.512 2.048-1.536 4.096-3.072 5.632-3.584 3.584-5.632 13.312-5.12 16.384 1.536 8.192 16.896 19.456 16.896 38.912 0 18.432-35.84 47.104-69.12 56.832-25.6 7.68-36.864 34.816-33.28 51.712 4.096 16.896 9.216 37.888 13.312 53.76 4.096 15.872-14.848 30.72-10.24 47.104 11.776 45.056 18.432 96.768 30.208 107.52 18.432 16.896 44.032 17.92 57.856 31.232 22.528 22.528-39.936 176.64-436.224 74.752-51.712-13.312-121.344-70.144-132.096-108.032-3.072-10.752-0.512-23.04 6.656-30.72 16.384-16.896 49.152-49.664 110.08-94.208z" p-id="3931" fill="#1296db"></path></svg>