<svg t="1578540233218" class="icon" viewBox="0 0 1024 1024" version="1.1" xmlns="http://www.w3.org/2000/svg" p-id="6307" width="48" height="48"><path d="M387.595264 992.059392c-10.073088 0-20.102144-4.102144-27.353088-12.224512-95.233024-106.656768-249.266176-107.685888-252.450816-107.685888h-0.217088c-20.102144 0-36.504576-16.219136-36.64896-36.320256-0.151552-20.207616 16.033792-36.682752 36.207616-36.90496 7.614464-0.403456 189.548544-0.219136 307.7376 132.137984 13.47584 15.084544 12.156928 38.22592-2.927616 51.700736-6.956032 6.223872-15.671296 9.296896-24.347648 9.296896z m245.528576-0.072704c-8.894464 0-17.83296-3.218432-24.894464-9.771008-14.833664-13.732864-15.744-36.912128-1.978368-51.739648C728.64768 798.304256 906.882048 798.449664 913.915904 798.739456c20.245504 0.223232 36.46464 16.771072 36.247552 36.983808-0.224256 20.096-16.555008 36.247552-36.616192 36.247552h-0.290816c-3.039232 0-153.960448 0.98816-253.294592 108.266496-7.17824 7.8336-17.028096 11.749376-26.838016 11.749376z m-64.549888-186.213376H452.547584a35.8912 35.8912 0 0 1-10.693632-1.614848c-123.864064-15.889408-229.12512-87.763968-296.97024-203.01824-78.757888-133.860352-96.80896-307.3024-44.8512-431.602688a36.653056 36.653056 0 0 1 33.063936-22.48192l11.017216-0.111616c69.750784 0 134.8864 13.185024 194.163712 39.254016 42.838016-78.31552 91.7504-137.742336 145.685504-176.989184a36.35712 36.35712 0 0 1 9.737216-6.1184c11.314176-4.903936 24.459264-3.843072 34.817024 2.894848a34.8416 34.8416 0 0 1 5.0176 3.954688c54.079488 39.688192 101.640192 98.233344 144.698368 178.19648 60.447744-27.314176 127.087616-41.151488 198.66624-41.151488l11.201536 0.105472a36.658176 36.658176 0 0 1 33.061888 22.48192c51.956736 124.3392 33.94048 297.781248-44.884992 431.639552-67.84512 115.182592-173.072384 187.097088-296.90368 203.019264-3.475456 0.956416-7.062528 1.542144-10.800128 1.542144z m-109.51168-73.22624h102.996992c0.764928-0.150528 1.570816-0.256 2.379776-0.367616 132.390912-14.721024 208.326656-99.62496 248.713216-168.20224 61.83936-105.120768 80.5888-242.495488 48.66048-343.621632-66.639872 2.162688-127.70816 18.492416-181.714944 48.661504-8.82176 4.903936-19.258368 5.933056-28.811264 2.999296-9.592832-2.999296-17.543168-9.848832-21.971968-18.888704-37.124096-75.93472-76.923904-131.80928-121.07776-169.888768-44.19072 38.006784-84.873216 94.282752-121.193472 167.727104-4.429824 8.933376-12.2624 15.671296-21.782528 18.669568-9.521152 3.039232-19.771392 2.018304-28.560384-2.743296-52.868096-28.742656-112.512-44.37504-177.358848-46.497792-31.922176 101.126144-13.179904 238.500864 48.661504 343.581696 40.38656 68.57728 116.282368 153.4464 248.644608 168.20224 0.805888 0.11264 1.609728 0.218112 2.414592 0.36864z m51.224576 291.406848c-20.21376 0-36.616192-16.36864-36.616192-36.615168V769.15712c0-20.246528 16.403456-36.611072 36.616192-36.611072 20.207616 0 36.611072 16.364544 36.611072 36.611072v218.181632c-0.034816 20.246528-16.403456 36.615168-36.611072 36.615168z m0 0" fill="#3f81c1" p-id="6308"></path></svg>