<svg t="1578546025487" class="icon" viewBox="0 0 1024 1024" version="1.1" xmlns="http://www.w3.org/2000/svg" p-id="11017" width="48" height="48"><path d="M886.154 65.641c36.194 0 65.64 29.447 65.64 65.641 0 36.195-29.446 65.641-65.64 65.641-36.195 0-65.641-29.446-65.641-65.64 0-36.195 29.446-65.642 65.64-65.642M282.257 439.795H39.385c-18.13 0-32.82 14.69-32.82 32.82 0 18.13 14.69 32.82 32.82 32.82h242.871c81.04 0 147.168-64.21 150.647-144.41H573.23c14.126 37.075 49.9 63.45 91.937 63.45 54.377 0 98.461-44.085 98.461-98.462s-44.084-98.462-98.461-98.462c-43.678 0-80.66 28.462-93.539 67.834H433.231v-45.95c0-47.05 38.282-85.332 85.333-85.332h240.614c14.598 56.595 65.825 98.461 126.976 98.461 72.507 0 131.282-58.775 131.282-131.282S958.66 0 886.154 0c-61.151 0-112.378 41.866-126.976 98.462H518.564c-83.246 0-150.974 67.728-150.974 150.974v45.949H39.385c-18.13 0-32.82 14.69-32.82 32.82 0 18.13 14.69 32.82 32.82 32.82h327.877c-3.374 43.993-40.173 78.77-85.006 78.77M39.385 662.974h415.691c14.126 37.074 49.9 63.449 91.937 63.449 54.377 0 98.461-44.085 98.461-98.462S601.39 529.5 547.013 529.5c-43.678 0-80.66 28.462-93.539 67.833H39.384c-18.13 0-32.82 14.69-32.82 32.82 0 18.13 14.69 32.821 32.82 32.821M886.154 958.359c-36.195 0-65.641-29.447-65.641-65.641 0-36.195 29.446-65.641 65.64-65.641 36.195 0 65.642 29.446 65.642 65.64 0 36.195-29.447 65.642-65.641 65.642m0-196.923c-61.151 0-112.378 41.866-126.976 98.461h-71.536c-44.15 0-88.51-10.135-128.289-29.315L449.392 777.57c-48.614-23.433-102.834-35.826-156.79-35.826H39.384c-18.13 0-32.82 14.69-32.82 32.82 0 18.13 14.69 32.82 32.82 32.82H292.6c44.15 0 88.51 10.136 128.29 29.316l109.961 53.012c48.6 23.433 102.82 35.826 156.79 35.826h71.536C773.776 982.134 825.003 1024 886.154 1024c72.507 0 131.282-58.775 131.282-131.282S958.66 761.436 886.154 761.436" p-id="11018" fill="#d4237a"></path></svg>