<svg t="1578546512042" class="icon" viewBox="0 0 1024 1024" version="1.1" xmlns="http://www.w3.org/2000/svg" p-id="11348" width="48" height="48"><path d="M417.376848 986.036277a457.646562 457.646562 0 0 0 116.013873 14.287422A463.361531 463.361531 0 0 0 996.833894 536.921347a463.198246 463.198246 0 0 0-65.722144-238.27339l-294.320909 435.9705 2.857484-5.143472a193.614989 193.614989 0 0 1-19.430895 28.574846 194.67634 194.67634 0 0 1-162.305122 72.580107c0.571497 6.857963 1.142994 13.715926 1.142994 20.410604a237.089575 237.089575 0 0 1-41.678454 134.995735z m-337.142356-275.42069A462.66757 462.66757 0 0 1 26.513783 493.446761 463.361531 463.361531 0 0 1 489.956956 30.044409a460.055013 460.055013 0 0 1 190.26765 40.576281l-374.289655 387.434084a149.487263 149.487263 0 0 0-20.002392 21.145385 194.880446 194.880446 0 0 0-42.290771 146.956349h-9.715448a181.531912 181.531912 0 0 0-153.691848 84.459079z m483.976241-26.860355a155.12059 155.12059 0 0 1-13.715926 20.002392 128.260235 128.260235 0 0 1-179.980705 22.859876 128.545984 128.545984 0 0 1-14.85892-180.552202 157.16165 157.16165 0 0 1 16.57341-17.144907L858.000966 25.472434a64.048475 64.048475 0 0 1 89.806658-11.429938 64.007654 64.007654 0 0 1 7.42946 90.296511z m-195.941798 159.447638a179.613315 179.613315 0 0 1-179.613315 179.613315 179.12346 179.12346 0 0 1-155.447159-89.806657h6.449751a89.520909 89.520909 0 0 0 89.806657-89.806658 119.728603 119.728603 0 0 1 119.442854-119.442854 119.361212 119.361212 0 0 1 119.320391 119.402033z m0 0" fill="#87a7d6" p-id="11349"></path></svg>