<svg t="1578389234621" class="icon" viewBox="0 0 1024 1024" version="1.1" xmlns="http://www.w3.org/2000/svg" p-id="1752" width="48" height="48"><path d="M814.41182695 511.66158032h-0.40610361C758.57257959 404.38254144 666.38705847 304.75178735 511.66158032 304.41336767v-0.06768395c-154.92852996 0.27073574-247.24941894 100.03685771-302.68256271 207.5189484h-0.13536785c0 0.06768393 0.06768393 0.06768393 0.06768394 0.13536788s-0.06768393 0.06768393-0.06768394 0.13536788h0.13536786c55.43314375 107.41440676 147.55098091 207.24821265 302.4795109 207.51894839 156.75599625-0.27073574 246.57257959-100.10454165 302.68256268-207.45126448h0.13536788c0-0.06768393-0.06768393-0.06768393-0.06768394-0.13536786l0.20305181-0.40610361zM511.52621245 641.47936996c-71.74497238 0-129.95315751-58.20818514-129.95315751-129.95315751s58.20818514-129.95315751 129.95315751-129.95315751 129.95315751 58.20818514 129.9531575 129.95315751-58.14050121 129.95315751-129.9531575 129.9531575z" p-id="1753" fill="#1aaba8"></path><path d="M512.67683938 511.86463212m-81.2884074 0a81.28840739 81.28840739 0 1 0 162.57681477 0 81.28840739 81.28840739 0 1 0-162.57681477 0Z" p-id="1754" fill="#1aaba8"></path></svg>