<svg t="1578389397627" class="icon" viewBox="0 0 1182 1024" version="1.1" xmlns="http://www.w3.org/2000/svg" p-id="3029" width="48" height="48"><path d="M592.738462 214.646154c151.630769 0 269.784615 118.153846 269.784615 269.784615 0 31.507692-5.907692 70.892308-21.661538 96.492308l155.569231 155.569231c80.738462-70.892308 145.723077-155.569231 183.138462-254.030769-92.553846-236.307692-322.953846-403.692308-592.738462-403.692308-74.830769 0-145.723077 15.753846-216.615385 37.415385l118.153846 118.153846C523.815385 220.553846 561.230769 214.646154 592.738462 214.646154zM53.169231 70.892308 177.230769 194.953846l21.661538 21.661538C108.307692 285.538462 37.415385 378.092308 0 484.430769c92.553846 236.307692 322.953846 403.692308 592.738462 403.692308 80.738462 0 161.476923-15.753846 238.276923-43.323077l21.661538 21.661538 155.569231 155.569231 70.892308-70.892308L124.061538 0 53.169231 70.892308zM350.523077 366.276923l80.738462 80.738462c0 15.753846 0 27.569231 0 37.415385 0 92.553846 70.892308 161.476923 161.476923 161.476923 9.846154 0 21.661538 0 37.415385-5.907692l80.738462 80.738462c-37.415385 21.661538-74.830769 31.507692-118.153846 31.507692-151.630769 0-269.784615-118.153846-269.784615-269.784615C322.953846 441.107692 334.769231 403.692308 350.523077 366.276923zM582.892308 322.953846l167.384615 167.384615c0-5.907692 0-5.907692 0-9.846154 0-92.553846-70.892308-161.476923-161.476923-161.476923C588.8 322.953846 588.8 322.953846 582.892308 322.953846z" p-id="3030" fill="#bfbfbf"></path></svg>